# Blender v2.78 (sub 0) OBJ File: 'gem.blend'
# www.blender.org
mtllib gem.mtl
o Cylinder_Cylinder.002
v 0.000000 -0.500000 -0.500000
v 0.000000 0.500000 -0.500000
v 0.475528 -0.500000 -0.154508
v 0.475528 0.500000 -0.154508
v 0.293893 -0.500000 0.404509
v 0.293893 0.500000 0.404509
v -0.293893 -0.500000 0.404508
v -0.293893 0.500000 0.404508
v -0.475528 -0.500000 -0.154509
v -0.475528 0.500000 -0.154509
vt 0.0000 0.0000
vt 1.0000 0.0000
vt 1.0000 1.0000
vt 0.0000 0.0000
vt 1.0000 0.0000
vt 1.0000 1.0000
vt 0.0000 0.0000
vt 1.0000 0.0000
vt 1.0000 1.0000
vt 0.0000 0.0000
vt 1.0000 0.0000
vt 1.0000 1.0000
vt 0.0000 0.0000
vt 1.0000 0.0000
vt 1.0000 1.0000
vt 1.0000 0.0000
vt 1.0000 1.0000
vt 0.0000 0.0000
vt 1.0000 0.0000
vt 1.0000 1.0000
vt 1.0000 0.0000
vt 1.0000 0.0000
vt 1.0000 0.0000
vt 0.0000 0.0000
vn 0.5878 0.0000 -0.8090
vn 0.9511 0.0000 0.3090
vn -0.0000 0.0000 1.0000
vn 0.0000 1.0000 0.0000
vn -0.9511 0.0000 0.3090
vn -0.5878 0.0000 -0.8090
vn 0.0000 -1.0000 -0.0000
usemtl None
s off
f 2/1/1 3/2/1 1/3/1
f 4/4/2 5/5/2 3/6/2
f 6/7/3 7/8/3 5/9/3
f 10/10/4 8/11/4 6/12/4
f 8/13/5 9/14/5 7/15/5
f 10/10/6 1/16/6 9/17/6
f 3/18/7 7/8/7 9/17/7
f 6/7/4 4/19/4 2/20/4
f 2/1/4 10/21/4 6/12/4
f 4/4/2 6/22/2 5/9/2
f 8/13/5 10/21/5 9/17/5
f 2/1/1 4/19/1 3/6/1
f 6/7/3 8/11/3 7/15/3
f 10/10/6 2/23/6 1/3/6
f 9/24/7 1/16/7 3/6/7
f 3/18/7 5/5/7 7/15/7
