# Blender v2.78 (sub 0) OBJ File: 'mesh.blend'
# www.blender.org
mtllib mesh.mtl
o Plane
v -16.071579 0.233131 15.874706
v 15.928421 0.233131 15.874706
v -16.071579 0.233131 -16.125294
v 15.928421 -5.013635 -16.125294
v -16.071579 0.233131 -0.125294
v -0.071579 0.233131 15.874706
v 15.928421 0.233131 -0.125294
v -0.071579 -5.013635 -16.125294
v 0.607686 6.200119 -1.893320
v -16.071579 0.233131 7.874706
v 7.928421 0.233131 15.874706
v 15.928421 -5.013635 -8.125294
v -8.071579 0.233131 -16.125294
v -16.071579 0.233131 -8.125294
v -8.071579 0.233131 15.874706
v 15.928421 0.233131 7.874706
v 7.928421 -5.013635 -16.125294
v -0.071579 0.233131 -8.125294
v -0.071579 0.233131 7.874706
v -8.071579 0.233131 -0.125294
v 7.928421 0.233131 -0.125294
v 7.928421 0.233131 7.874706
v -8.071579 0.233131 7.874706
v -8.071579 0.233131 -8.125294
v 7.928421 -5.013635 -8.125294
v -16.071579 0.233131 11.874706
v 11.928421 0.233131 15.874706
v 15.928421 -5.013635 -12.125294
v -12.071579 0.233131 -16.125294
v -16.071579 0.233131 -4.125294
v -4.071579 0.233131 15.874706
v 15.928421 0.233131 3.874706
v 3.928421 -5.013635 -16.125294
v -0.071579 -5.013635 -12.125294
v 0.607686 6.200119 2.106680
v -12.071579 0.233131 -0.125294
v 3.928421 0.233131 -0.125294
v -16.071579 0.233131 3.874706
v 3.928421 0.233131 15.874706
v 15.928421 -5.013635 -4.125294
v -4.071579 0.233131 -16.125294
v -16.071579 0.233131 -12.125294
v -12.071579 0.233131 15.874706
v 15.928421 0.233131 11.874706
v 11.928421 -5.013635 -16.125294
v 0.607686 6.200119 -5.893320
v -0.071579 0.233131 11.874706
v -3.392314 6.200119 -1.893320
v 11.928421 0.233131 -0.125294
v 7.928421 0.233131 3.874706
v 7.928421 0.233131 11.874706
v 3.928421 0.233131 7.874706
v 11.928421 0.233131 7.874706
v -8.071579 0.233131 3.874706
v -8.071579 0.233131 11.874706
v -12.071579 0.233131 7.874706
v -4.071579 0.233131 7.874706
v -8.071579 0.233131 -12.125294
v -8.071579 0.233131 -4.125294
v -12.071579 0.233131 -8.125294
v -4.071579 0.233131 -8.125294
v 7.928421 -5.013635 -12.125294
v 7.928421 0.233131 -4.125294
v 3.928421 0.233131 -8.125294
v 11.928421 -5.013635 -8.125294
v 11.928421 -5.013635 -4.125294
v 3.928421 0.233131 -4.125294
v 3.928421 -5.013635 -12.125294
v -4.071579 0.233131 -4.125294
v -12.071579 0.233131 -4.125294
v -12.071579 0.233131 -12.125294
v -4.071579 0.233131 11.874706
v -12.071579 0.233131 11.874706
v -12.071579 0.233131 3.874706
v 11.928421 0.233131 11.874706
v 3.928421 0.233131 11.874706
v 4.607686 6.200119 2.106680
v 11.928421 0.233131 3.874706
v -3.392314 6.200119 2.106680
v -4.071579 0.233131 -12.125294
v 11.928421 -5.013635 -12.125294
vt 0.2732 0.2127
vt 0.2429 0.1824
vt 0.2732 0.1824
vt 0.9689 0.6355
vt 0.9387 0.0003
vt 0.9689 0.0003
vt 0.3035 0.2435
vt 0.2732 0.2132
vt 0.3035 0.2132
vt 0.0003 0.2429
vt 0.0305 0.2127
vt 0.0305 0.2429
vt 0.7227 0.0911
vt 0.7227 0.0608
vt 0.0003 0.0659
vt 0.0608 0.3035
vt 0.0911 0.2732
vt 0.0911 0.3035
vt 0.0003 0.3035
vt 0.0305 0.2732
vt 0.0305 0.3035
vt 0.1819 0.2429
vt 0.2121 0.2127
vt 0.2121 0.2429
vt 0.1819 0.3035
vt 0.2121 0.2732
vt 0.2121 0.3035
vt 0.1213 0.3035
vt 0.1516 0.2732
vt 0.1516 0.3035
vt 0.1819 0.1219
vt 0.2121 0.0916
vt 0.2121 0.1219
vt 0.1819 0.1824
vt 0.2121 0.1521
vt 0.2121 0.1824
vt 0.1516 0.1824
vt 0.1213 0.1521
vt 0.1516 0.1521
vt 0.2732 0.1521
vt 0.2429 0.1219
vt 0.2732 0.1219
vt 0.0608 0.1824
vt 0.0911 0.1521
vt 0.0911 0.1824
vt 0.3337 0.2127
vt 0.3035 0.1824
vt 0.3337 0.1824
vt 0.9381 0.0003
vt 0.9079 0.0017
vt 0.9381 0.6362
vt 0.0608 0.2127
vt 0.0003 0.5170
vt 0.6355 0.4867
vt 0.0003 0.4867
vt 0.8458 0.0003
vt 0.8155 0.0013
vt 0.8458 0.7231
vt 0.0003 0.3645
vt 0.7227 0.3814
vt 0.0003 0.3948
vt 0.0911 0.2127
vt 0.2429 0.0916
vt 0.2732 0.0916
vt 0.0003 0.4559
vt 0.6355 0.4256
vt 0.0003 0.4256
vt 0.9073 0.0003
vt 0.8771 0.0017
vt 0.9073 0.6362
vt 0.1819 0.1521
vt 0.1819 0.2127
vt 0.7847 0.7220
vt 0.8150 0.7235
vt 0.8150 0.0003
vt 0.2424 0.1521
vt 0.2424 0.1824
vt 0.2424 0.2127
vt 0.2424 0.0916
vt 0.2424 0.1219
vt 0.1819 0.2732
vt 0.1516 0.3337
vt 0.1819 0.3337
vt 0.1213 0.3337
vt 0.2424 0.2732
vt 0.2424 0.3035
vt 0.2121 0.3337
vt 0.2424 0.3337
vt 0.2424 0.2429
vt 0.0608 0.2732
vt 0.0305 0.3337
vt 0.0608 0.3337
vt 0.0003 0.3337
vt 0.1213 0.2732
vt 0.0911 0.3337
vt 0.3035 0.2737
vt 0.2732 0.2435
vt 0.7227 0.0608
vt 0.0003 0.0357
vt 0.7227 0.0305
vt 0.0608 0.2429
vt 0.0003 0.2732
vt 0.7535 0.0008
vt 0.7232 0.7228
vt 0.7535 0.7233
vt 0.0003 0.0054
vt 0.7227 0.0003
vt 0.1516 0.1219
vt 0.1819 0.0916
vt 0.2429 0.1521
vt 0.3035 0.1521
vt 0.3035 0.2127
vt 0.2429 0.2127
vt 0.9387 0.6355
vt 0.0003 0.2127
vt 0.8766 0.7228
vt 0.8766 0.0003
vt 0.8463 0.7222
vt 0.9997 0.6355
vt 0.9997 0.0003
vt 0.9695 0.6355
vt 0.0003 0.4564
vt 0.6355 0.5170
vt 0.7227 0.3512
vt 0.6355 0.4559
vt 0.7227 0.5175
vt 0.0003 0.5309
vt 0.7227 0.5478
vt 0.2429 0.2435
vt 0.0003 0.3343
vt 0.7232 0.0003
vt 0.7842 0.7240
vt 0.7842 0.0003
vt 0.7540 0.7221
vt 0.1516 0.0916
vt 0.0003 0.3954
vn 0.0000 1.0000 0.0000
vn 0.7953 0.6063 0.0000
vn 0.6954 0.1810 -0.6954
vn 0.6224 0.4745 -0.6224
vn 0.0000 0.6063 -0.7953
vn 0.8738 0.4863 0.0000
vn -0.6684 0.3261 -0.6684
vn 0.0000 0.6950 0.7190
vn 0.6055 0.5164 0.6055
vn -0.7869 0.6171 0.0000
vn -0.5619 0.6071 0.5619
usemtl Material.001
s off
f 28/1/1 45/2/1 81/3/1
f 34/4/2 41/5/2 80/6/2
f 35/7/1 48/8/1 79/9/1
f 32/10/1 49/11/1 78/12/1
f 50/13/3 37/14/3 77/15/3
f 51/16/1 52/17/1 76/18/1
f 44/19/1 53/20/1 75/21/1
f 54/22/1 36/23/1 74/24/1
f 55/25/1 56/26/1 73/27/1
f 47/28/1 57/29/1 72/30/1
f 58/31/1 29/32/1 71/33/1
f 59/34/1 60/35/1 70/36/1
f 69/37/1 18/38/1 61/39/1
f 62/40/1 33/41/1 68/42/1
f 63/43/1 64/44/1 67/45/1
f 40/46/1 65/47/1 66/48/1
f 66/49/4 25/50/4 63/51/4
f 49/11/1 63/43/1 21/52/1
f 7/53/5 66/54/5 49/55/5
f 67/56/3 18/57/3 46/58/3
f 9/59/6 67/60/6 46/61/6
f 21/52/1 67/45/1 37/62/1
f 68/42/1 8/63/1 34/64/1
f 64/65/5 34/66/5 18/67/5
f 25/68/4 68/69/4 64/70/4
f 69/37/1 24/71/1 59/34/1
f 20/72/1 69/37/1 59/34/1
f 48/73/7 46/74/7 69/75/7
f 70/36/1 14/76/1 30/77/1
f 36/23/1 30/77/1 5/78/1
f 20/72/1 70/36/1 36/23/1
f 71/33/1 3/79/1 42/80/1
f 60/35/1 42/80/1 14/76/1
f 24/71/1 71/33/1 60/35/1
f 72/30/1 23/81/1 55/25/1
f 31/82/1 55/25/1 15/83/1
f 6/84/1 72/30/1 31/82/1
f 73/27/1 10/85/1 26/86/1
f 43/87/1 26/86/1 1/88/1
f 15/83/1 73/27/1 43/87/1
f 74/24/1 5/78/1 38/89/1
f 56/26/1 38/89/1 10/85/1
f 23/81/1 74/24/1 56/26/1
f 75/21/1 22/90/1 51/16/1
f 27/91/1 51/16/1 11/92/1
f 2/93/1 75/21/1 27/91/1
f 76/18/1 19/94/1 47/28/1
f 39/95/1 47/28/1 6/84/1
f 11/92/1 76/18/1 39/95/1
f 77/96/1 9/97/1 35/7/1
f 52/98/8 35/99/8 19/100/8
f 52/98/9 50/13/9 77/15/9
f 78/12/1 21/52/1 50/101/1
f 53/20/1 50/101/1 22/90/1
f 16/102/1 78/12/1 53/20/1
f 79/103/10 20/104/10 54/105/10
f 57/29/1 54/22/1 23/81/1
f 19/100/8 79/106/8 57/107/8
f 80/108/1 13/109/1 58/31/1
f 61/39/1 58/31/1 24/71/1
f 18/38/1 80/108/1 61/39/1
f 81/3/1 17/110/1 62/40/1
f 65/47/1 62/40/1 25/111/1
f 12/112/1 81/3/1 65/47/1
f 28/1/1 4/113/1 45/2/1
f 34/4/2 8/114/2 41/5/2
f 35/7/1 9/97/1 48/8/1
f 32/10/1 7/115/1 49/11/1
f 50/101/1 21/52/1 37/62/1
f 51/16/1 22/90/1 52/17/1
f 44/19/1 16/102/1 53/20/1
f 54/22/1 20/72/1 36/23/1
f 55/25/1 23/81/1 56/26/1
f 47/28/1 19/94/1 57/29/1
f 58/31/1 13/109/1 29/32/1
f 59/34/1 24/71/1 60/35/1
f 69/116/7 46/117/7 18/118/7
f 62/40/1 17/110/1 33/41/1
f 63/119/4 25/120/4 64/121/4
f 40/46/1 12/112/1 65/47/1
f 66/48/1 65/47/1 25/111/1
f 49/55/4 66/54/4 63/122/4
f 7/53/5 40/123/5 66/54/5
f 67/45/1 64/44/1 18/38/1
f 9/59/6 37/124/6 67/60/6
f 21/52/1 63/43/1 67/45/1
f 68/42/1 33/41/1 8/63/1
f 64/65/5 68/125/5 34/66/5
f 25/111/1 62/40/1 68/42/1
f 69/37/1 61/39/1 24/71/1
f 20/126/7 48/127/7 69/128/7
f 48/8/1 9/97/1 46/129/1
f 70/36/1 60/35/1 14/76/1
f 36/23/1 70/36/1 30/77/1
f 20/72/1 59/34/1 70/36/1
f 71/33/1 29/32/1 3/79/1
f 60/35/1 71/33/1 42/80/1
f 24/71/1 58/31/1 71/33/1
f 72/30/1 57/29/1 23/81/1
f 31/82/1 72/30/1 55/25/1
f 6/84/1 47/28/1 72/30/1
f 73/27/1 56/26/1 10/85/1
f 43/87/1 73/27/1 26/86/1
f 15/83/1 55/25/1 73/27/1
f 74/24/1 36/23/1 5/78/1
f 56/26/1 74/24/1 38/89/1
f 23/81/1 54/22/1 74/24/1
f 75/21/1 53/20/1 22/90/1
f 27/91/1 75/21/1 51/16/1
f 2/93/1 44/19/1 75/21/1
f 76/18/1 52/17/1 19/94/1
f 39/95/1 76/18/1 47/28/1
f 11/92/1 51/16/1 76/18/1
f 77/130/3 37/124/3 9/59/3
f 52/98/8 77/15/8 35/99/8
f 52/17/1 22/90/1 50/101/1
f 78/12/1 49/11/1 21/52/1
f 53/20/1 78/12/1 50/101/1
f 16/102/1 32/10/1 78/12/1
f 79/103/10 48/131/10 20/104/10
f 57/132/11 79/133/11 54/134/11
f 19/100/8 35/99/8 79/106/8
f 80/108/1 41/135/1 13/109/1
f 61/39/1 80/108/1 58/31/1
f 18/67/4 34/66/4 80/136/4
f 81/3/1 45/2/1 17/110/1
f 65/47/1 81/3/1 62/40/1
f 12/112/1 28/1/1 81/3/1
